<?xml version="1.0" encoding="utf-8"?>
<!-- Generator: Adobe Illustrator 21.1.0, SVG Export Plug-In . SVG Version: 6.00 Build 0)  -->
<svg version="1.1" id="Camada_1" xmlns="http://www.w3.org/2000/svg" xmlns:xlink="http://www.w3.org/1999/xlink" x="0px" y="0px"
	 viewBox="0 0 757.9 741.9" style="enable-background:new 0 0 757.9 741.9;" xml:space="preserve">
<style type="text/css">
	.st0{fill:#A2C037;}
	.st1{fill:none;stroke:#FFFFFF;stroke-width:5;stroke-linejoin:round;stroke-miterlimit:10;}
	.st2{fill:none;stroke:#FFFFFF;stroke-width:2;stroke-miterlimit:10;}
	.st3{enable-background:new    ;}
	.st4{fill:#FFFFFF;}
	.st5{fill:none;stroke:#FFFFFF;stroke-width:3;stroke-miterlimit:10;}
	.st6{fill:none;stroke:#A2C037;stroke-width:3;stroke-miterlimit:10;}
</style>
<g id="Group_647" transform="translate(25 -165.901)">
	<circle id="Ellipse_64" class="st0" cx="402" cy="576.9" r="331"/>
	<g id="Group_645" transform="translate(971.334 2728.333)">
		<g id="Group_646" transform="translate(0 0)">
			<g id="Group_639" transform="translate(258.557 0) rotate(45)">
				<g id="Group_637" transform="translate(0 0)">
					<path id="Path_1035" class="st1" d="M-1978.6-1075.5l-43.2-43.2l-220.9,220.9l43.2,43.2c12.2-12.2,32.9-12.2,45.1,0
						c12.2,12.2,12.2,32.9,0,45.1l43.2,43.2l220.9-220.9l-43.2-43.2c-12.2,12.2-32.9,12.2-45.1,0c-12.5-11.5-13.3-30.9-1.8-43.4
						C-1979.9-1074.3-1979.3-1074.9-1978.6-1075.5z"/>
					<path id="Path_1037" class="st1" d="M-1942.9-927.9l-25.4-25.4 M-1980.5-965.5l-25.4-25.4 M-2018.1-1003.1l-25.4-25.4
						 M-2055.7-1040.7l-25.4-25.4"/>
					<path id="Path_1038" class="st1" d="M-2107.4-1072.7l-14.1-15l-202.1,203l43.2,43.2c12.2-12.2,32.9-12.2,45.1,0
						c12.2,12.2,12.2,32.9,0,45.1l43.2,43.2l28.2-28.2"/>
				</g>
				<g id="Group_638" transform="translate(271.362 55.322) rotate(-45)">
					<path id="Path_1039" class="st2" d="M-831.7-2398.3L-831.7-2398.3c0.8,0,1.4-0.4,1.9-1l0,0l10.9-18.9h-18.5l-3.5,6.1l7.4,12.8
						c0.2,0.3,0.4,0.5,0.7,0.7l0,0C-832.4-2398.4-832.1-2398.3-831.7-2398.3z"/>
					<path id="Path_1040" class="st2" d="M-825.9-2418.1h7l7.4-12.8c0.1-0.3,0.2-0.6,0.2-0.9l0,0c0-1.2-0.9-2.1-2.1-2.2h-21.8
						L-825.9-2418.1z"/>
					<path id="Path_1041" class="st2" d="M-850-2434.1c-0.3,0-0.6,0.1-0.9,0.3l0,0c-0.7,0.4-1.1,1.1-1.1,1.9l0,0
						c0,0.3,0.1,0.7,0.2,1l0,0l10.9,18.9l3.5-6.1l5.7-9.9l-3.5-6.1L-850-2434.1L-850-2434.1z"/>
				</g>
			</g>
			<g id="Group_641" transform="translate(241.14 276.697)">
				<g class="st3">
					<path class="st4" d="M-847.3-2396.4h-3.3l-11.9-18.4c-0.3-0.5-0.5-0.9-0.7-1.4h-0.1c0.1,0.5,0.1,1.6,0.1,3.2v16.7h-2.7v-23.1
						h3.5l11.6,18.1c0.5,0.8,0.8,1.3,0.9,1.5h0.1c-0.1-0.7-0.2-1.8-0.2-3.4v-16.3h2.7V-2396.4z"/>
					<path class="st4" d="M-840.7-2396c-0.5,0-0.9-0.2-1.3-0.5c-0.3-0.4-0.5-0.8-0.5-1.3s0.2-0.9,0.5-1.3c0.3-0.4,0.8-0.5,1.3-0.5
						c0.5,0,0.9,0.2,1.3,0.5c0.4,0.4,0.5,0.8,0.5,1.3s-0.2,0.9-0.5,1.3C-839.8-2396.2-840.2-2396-840.7-2396z"/>
					<path class="st4" d="M-821.8-2402.9c0,1-0.2,2-0.6,2.8c-0.4,0.9-0.9,1.6-1.7,2.2c-0.7,0.6-1.6,1.1-2.6,1.4s-2.1,0.5-3.3,0.5
						c-2.2,0-4-0.4-5.3-1.3v-2.8c1.6,1.2,3.3,1.8,5.3,1.8c0.8,0,1.5-0.1,2.2-0.3c0.7-0.2,1.2-0.5,1.7-0.9c0.5-0.4,0.8-0.9,1.1-1.4
						c0.3-0.5,0.4-1.2,0.4-1.9c0-3-2.1-4.5-6.4-4.5h-1.9v-2.2h1.8c3.8,0,5.7-1.4,5.7-4.3c0-2.6-1.5-3.9-4.4-3.9
						c-1.6,0-3.2,0.5-4.6,1.6v-2.6c1.5-0.9,3.2-1.3,5.3-1.3c1,0,1.8,0.1,2.6,0.4s1.5,0.6,2,1.1c0.6,0.5,1,1.1,1.3,1.7
						c0.3,0.7,0.5,1.4,0.5,2.2c0,3-1.5,5-4.6,5.9v0.1c0.8,0.1,1.5,0.3,2.2,0.6c0.7,0.3,1.2,0.7,1.7,1.2s0.9,1,1.1,1.7
						C-821.9-2404.4-821.8-2403.7-821.8-2402.9z"/>
					<path class="st4" d="M-806.9-2413.4c0-0.7-0.1-1.3-0.3-1.9c-0.2-0.5-0.5-1-0.9-1.3c-0.4-0.3-0.8-0.6-1.3-0.8
						c-0.5-0.2-1.1-0.3-1.7-0.3c-0.5,0-1,0.1-1.5,0.2s-1,0.3-1.4,0.6c-0.5,0.2-0.9,0.5-1.4,0.9c-0.4,0.3-0.8,0.7-1.2,1.1v-2.8
						c0.7-0.7,1.6-1.3,2.5-1.7c0.9-0.4,2-0.6,3.4-0.6c0.9,0,1.8,0.1,2.6,0.4c0.8,0.3,1.5,0.7,2.1,1.2s1.1,1.2,1.4,2
						c0.3,0.8,0.5,1.7,0.5,2.7c0,0.9-0.1,1.7-0.3,2.5c-0.2,0.7-0.5,1.4-1,2.1c-0.4,0.7-1,1.3-1.6,1.9c-0.6,0.6-1.4,1.2-2.3,1.8
						c-1.1,0.8-2,1.4-2.7,2c-0.7,0.5-1.3,1.1-1.7,1.5c-0.4,0.5-0.7,1-0.9,1.4c-0.2,0.5-0.3,1-0.3,1.7h11.5v2.4h-14.3v-1.1
						c0-1,0.1-1.9,0.3-2.6s0.6-1.5,1.1-2.1s1.1-1.4,1.9-2c0.8-0.7,1.8-1.4,2.9-2.3c0.8-0.6,1.5-1.2,2.1-1.7c0.6-0.5,1-1.1,1.4-1.6
						c0.3-0.5,0.6-1.1,0.7-1.7C-807-2412.2-806.9-2412.8-806.9-2413.4z"/>
					<path class="st4" d="M-786.2-2402.9c0,1-0.2,2-0.6,2.8c-0.4,0.9-0.9,1.6-1.7,2.2c-0.7,0.6-1.6,1.1-2.6,1.4s-2.1,0.5-3.3,0.5
						c-2.2,0-4-0.4-5.3-1.3v-2.8c1.6,1.2,3.3,1.8,5.3,1.8c0.8,0,1.5-0.1,2.2-0.3c0.7-0.2,1.2-0.5,1.7-0.9c0.5-0.4,0.8-0.9,1.1-1.4
						c0.3-0.5,0.4-1.2,0.4-1.9c0-3-2.1-4.5-6.4-4.5h-1.9v-2.2h1.8c3.8,0,5.7-1.4,5.7-4.3c0-2.6-1.5-3.9-4.4-3.9
						c-1.6,0-3.2,0.5-4.6,1.6v-2.6c1.5-0.9,3.2-1.3,5.3-1.3c1,0,1.8,0.1,2.6,0.4s1.5,0.6,2,1.1c0.6,0.5,1,1.1,1.3,1.7
						c0.3,0.7,0.5,1.4,0.5,2.2c0,3-1.5,5-4.6,5.9v0.1c0.8,0.1,1.5,0.3,2.2,0.6c0.7,0.3,1.2,0.7,1.7,1.2s0.9,1,1.1,1.7
						C-786.4-2404.4-786.2-2403.7-786.2-2402.9z"/>
					<path class="st4" d="M-770.1-2419.5v15.3h3v2.4h-3v5.4h-2.6v-5.4h-10.9v-2.3c1-1.1,2-2.4,3.1-3.6c1-1.3,2-2.6,3-3.9
						c0.9-1.3,1.8-2.7,2.6-4c0.8-1.3,1.5-2.6,2-3.8H-770.1z M-780.6-2404.2h7.9v-11.3c-0.8,1.4-1.6,2.7-2.3,3.8
						c-0.7,1.1-1.4,2.1-2.1,3c-0.6,0.9-1.3,1.7-1.9,2.4S-780.1-2404.9-780.6-2404.2z"/>
					<path class="st4" d="M-750.6-2402.9c0,1-0.2,2-0.6,2.8c-0.4,0.9-0.9,1.6-1.7,2.2c-0.7,0.6-1.6,1.1-2.6,1.4s-2.1,0.5-3.3,0.5
						c-2.2,0-4-0.4-5.3-1.3v-2.8c1.6,1.2,3.3,1.8,5.3,1.8c0.8,0,1.5-0.1,2.2-0.3c0.7-0.2,1.2-0.5,1.7-0.9c0.5-0.4,0.8-0.9,1.1-1.4
						c0.3-0.5,0.4-1.2,0.4-1.9c0-3-2.1-4.5-6.4-4.5h-1.9v-2.2h1.8c3.8,0,5.7-1.4,5.7-4.3c0-2.6-1.5-3.9-4.4-3.9
						c-1.6,0-3.2,0.5-4.6,1.6v-2.6c1.5-0.9,3.2-1.3,5.3-1.3c1,0,1.8,0.1,2.6,0.4s1.5,0.6,2,1.1c0.6,0.5,1,1.1,1.3,1.7
						c0.3,0.7,0.5,1.4,0.5,2.2c0,3-1.5,5-4.6,5.9v0.1c0.8,0.1,1.5,0.3,2.2,0.6c0.7,0.3,1.2,0.7,1.7,1.2s0.9,1,1.1,1.7
						C-750.8-2404.4-750.6-2403.7-750.6-2402.9z"/>
				</g>
				<g class="st3">
					<path class="st4" d="M-821.6-2429.5v-1.4c0.2,0.1,0.3,0.3,0.6,0.4c0.2,0.1,0.4,0.2,0.7,0.3c0.2,0.1,0.5,0.1,0.7,0.2
						s0.5,0.1,0.7,0.1c0.7,0,1.2-0.1,1.6-0.4c0.3-0.3,0.5-0.6,0.5-1.1c0-0.3-0.1-0.5-0.2-0.7c-0.1-0.2-0.3-0.4-0.5-0.5
						c-0.2-0.2-0.4-0.3-0.7-0.5c-0.3-0.1-0.6-0.3-0.9-0.5c-0.3-0.2-0.7-0.3-1-0.5s-0.6-0.4-0.8-0.6s-0.4-0.5-0.5-0.7
						c-0.1-0.3-0.2-0.6-0.2-1c0-0.4,0.1-0.8,0.3-1.2c0.2-0.3,0.5-0.6,0.8-0.8s0.7-0.4,1.1-0.5c0.4-0.1,0.8-0.2,1.2-0.2
						c1,0,1.7,0.1,2.1,0.3v1.3c-0.6-0.4-1.3-0.6-2.2-0.6c-0.3,0-0.5,0-0.8,0.1c-0.3,0.1-0.5,0.1-0.7,0.3s-0.4,0.3-0.5,0.5
						s-0.2,0.4-0.2,0.7c0,0.3,0,0.5,0.1,0.6c0.1,0.2,0.2,0.3,0.4,0.5s0.4,0.3,0.7,0.4c0.3,0.1,0.6,0.3,0.9,0.5
						c0.4,0.2,0.7,0.4,1,0.5s0.6,0.4,0.8,0.6s0.4,0.5,0.6,0.8c0.1,0.3,0.2,0.6,0.2,1c0,0.5-0.1,0.9-0.3,1.2
						c-0.2,0.3-0.4,0.6-0.8,0.8c-0.3,0.2-0.7,0.4-1.1,0.5c-0.4,0.1-0.9,0.1-1.3,0.1c-0.2,0-0.3,0-0.6,0c-0.2,0-0.5-0.1-0.7-0.1
						c-0.2,0-0.5-0.1-0.7-0.2C-821.4-2429.3-821.5-2429.4-821.6-2429.5z"/>
					<path class="st4" d="M-808.6-2429.1h-5.2v-9.8h5v1h-3.8v3.3h3.5v1h-3.5v3.4h4V-2429.1z M-809.5-2442l-1.8,2.2h-0.9l1.5-2.2
						H-809.5z"/>
					<path class="st4" d="M-799.6-2429.1h-1.4l-1.6-2.7c-0.2-0.3-0.3-0.5-0.4-0.7c-0.1-0.2-0.3-0.3-0.4-0.4
						c-0.1-0.1-0.3-0.2-0.5-0.3c-0.2-0.1-0.4-0.1-0.6-0.1h-0.9v4.2h-1.1v-9.8h2.9c0.4,0,0.8,0.1,1.2,0.2c0.4,0.1,0.7,0.3,0.9,0.5
						c0.3,0.2,0.5,0.5,0.6,0.8c0.2,0.3,0.2,0.7,0.2,1.1c0,0.3-0.1,0.7-0.2,0.9c-0.1,0.3-0.2,0.5-0.4,0.8c-0.2,0.2-0.4,0.4-0.7,0.6
						c-0.3,0.2-0.6,0.3-0.9,0.4v0c0.2,0.1,0.3,0.2,0.4,0.3c0.1,0.1,0.2,0.2,0.3,0.3s0.2,0.3,0.3,0.4c0.1,0.2,0.2,0.3,0.4,0.6
						L-799.6-2429.1z M-805.5-2437.9v3.6h1.6c0.3,0,0.6,0,0.8-0.1c0.2-0.1,0.5-0.2,0.6-0.4c0.2-0.2,0.3-0.4,0.4-0.6
						c0.1-0.2,0.2-0.5,0.2-0.8c0-0.5-0.2-0.9-0.5-1.2c-0.3-0.3-0.8-0.4-1.5-0.4H-805.5z"/>
					<path class="st4" d="M-797.1-2429.1h-1.1v-9.8h1.1V-2429.1z"/>
					<path class="st4" d="M-789.4-2429.1h-5.2v-9.8h5v1h-3.8v3.3h3.5v1h-3.5v3.4h4V-2429.1z"/>
					<path class="st4" d="M-778-2434c0,0.8-0.1,1.5-0.2,2.2c-0.1,0.6-0.4,1.2-0.6,1.6c-0.3,0.4-0.6,0.8-1,1
						c-0.4,0.2-0.9,0.3-1.4,0.3c-0.5,0-0.9-0.1-1.3-0.3c-0.4-0.2-0.7-0.5-1-0.9s-0.5-0.9-0.6-1.5c-0.1-0.6-0.2-1.3-0.2-2.1
						c0-0.9,0.1-1.6,0.2-2.3c0.1-0.7,0.4-1.2,0.6-1.7c0.3-0.4,0.6-0.8,1-1c0.4-0.2,0.9-0.3,1.4-0.3C-779-2439.1-778-2437.4-778-2434
						z M-779.1-2433.9c0-2.8-0.7-4.2-2-4.2c-1.4,0-2.1,1.4-2.1,4.3c0,2.6,0.7,4,2.1,4C-779.8-2429.9-779.1-2431.2-779.1-2433.9z"/>
					<path class="st4" d="M-770.4-2434c0,0.8-0.1,1.5-0.2,2.2c-0.1,0.6-0.4,1.2-0.6,1.6c-0.3,0.4-0.6,0.8-1,1
						c-0.4,0.2-0.9,0.3-1.4,0.3c-0.5,0-0.9-0.1-1.3-0.3c-0.4-0.2-0.7-0.5-1-0.9s-0.5-0.9-0.6-1.5c-0.1-0.6-0.2-1.3-0.2-2.1
						c0-0.9,0.1-1.6,0.2-2.3c0.1-0.7,0.4-1.2,0.6-1.7c0.3-0.4,0.6-0.8,1-1c0.4-0.2,0.9-0.3,1.4-0.3
						C-771.4-2439.1-770.4-2437.4-770.4-2434z M-771.6-2433.9c0-2.8-0.7-4.2-2-4.2c-1.4,0-2.1,1.4-2.1,4.3c0,2.6,0.7,4,2.1,4
						C-772.2-2429.9-771.6-2431.2-771.6-2433.9z"/>
				</g>
			</g>
		</g>
	</g>
</g>
<g id="Group_643" transform="translate(-341 157)">
	<circle id="Ellipse_63" class="st0" cx="491.6" cy="-8.2" r="77.8"/>
	<g id="Group_642" transform="translate(1329.333 2392.282)">
		<path id="Path_1042" class="st5" d="M-833.9-2372.4v-4.7c0,0,4.7-3.4,4.7-7.8v-6.2"/>
		<path id="Path_1043" class="st5" d="M-846.3-2409.6l-7.8,6.2c-2.2,2-3.1,3.1-3.1,6.2v24.8"/>
		<rect id="Rectangle_1060" x="-860.2" y="-2372.4" class="st5" width="29.5" height="7.8"/>
		<path id="Path_1044" class="st5" d="M-850.9-2392.6l12.4-12.4c2.8-2.8,7.3,4.2,3.9,8.5l-3.9,3.9v4.7c0,6-5.3,6.2-6.2,6.2"/>
		<path id="Path_1045" class="st5" d="M-846.3-2398.8v-34.1c0-1.7,1.4-3.1,3.1-3.1h24.8c1.7,0,3.1,1.4,3.1,3.1v38.8
			c0,1.7-1.4,3.1-3.1,3.1h-20.2"/>
		<line id="Line_9" class="st5" x1="-823" y1="-2436" x2="-823" y2="-2391"/>
	</g>
</g>
<path id="Path_1049" class="st6" d="M234.6,62c9.7-7.6,22.4-10.3,34.4-7.2c6.1,1.5,11.8,4.4,16.7,8.5l-8.4,6.2L318,83.4l-3.4-41.7
	l-8.5,6.5c-7.1-5.4-15.2-9.3-23.8-11.5c-34.2-8.5-68.8,11.9-77.2,45.7"/>
</svg>
