<?xml version="1.0" encoding="utf-8"?>
<!-- Generator: Adobe Illustrator 21.1.0, SVG Export Plug-In . SVG Version: 6.00 Build 0)  -->
<svg version="1.1" id="Camada_1" xmlns="http://www.w3.org/2000/svg" xmlns:xlink="http://www.w3.org/1999/xlink" x="0px" y="0px"
	 viewBox="0 0 160 160" style="enable-background:new 0 0 160 160;" xml:space="preserve">
<style type="text/css">
	.st0{fill:#A2C037;}
	.st1{fill:none;stroke:#FFFFFF;stroke-width:5;stroke-linejoin:round;stroke-miterlimit:10;}
	.st2{fill:none;stroke:#FFFFFF;stroke-width:2;stroke-miterlimit:10;}
	.st3{fill:none;stroke:#FFFFFF;stroke-width:3;stroke-miterlimit:10;}
	.st4{fill:none;stroke:#A2C037;stroke-width:3;stroke-miterlimit:10;}
	.st5{fill:none;stroke:#FFFFFF;stroke-width:2;stroke-linejoin:round;stroke-miterlimit:10;}
</style>
<circle id="Ellipse_63_3_" class="st0" cx="80" cy="80" r="77.5"/>
<g id="Group_622" transform="translate(576 1350)">
	<path id="Path_532" class="st5" d="M-486.5-1257.3c3.4-0.2,6.1-2.9,6.3-6.3v-14.2c0-5.2-10.3-7.9-15.8-7.9s-15.8,2.7-15.8,7.9v14.2
		c0.2,3.4,2.9,6.1,6.3,6.3"/>
	<path id="Path_533" class="st5" d="M-467.5-1254.2c3,0,6.3-1.7,6.3-4.7v-14.2c0-5.2-9.3-7.9-14.2-7.9h-1.6"/>
	<path id="Path_534" class="st5" d="M-496-1290.5c3.3,0.1,6.2-2.4,6.3-5.8c0-0.2,0-0.4,0-0.5v-3.2c0.1-3.3-2.4-6.2-5.8-6.3
		c-0.2,0-0.4,0-0.5,0c-3.3-0.1-6.2,2.4-6.3,5.8c0,0.2,0,0.4,0,0.5v3.2c-0.1,3.3,2.4,6.2,5.8,6.3
		C-496.4-1290.5-496.2-1290.5-496-1290.5z"/>
	<line id="Line_1" class="st5" x1="-467.5" y1="-1233.6" x2="-467.5" y2="-1270"/>
	<line id="Line_2" class="st5" x1="-486.5" y1="-1233.6" x2="-486.5" y2="-1274.7"/>
	<line id="Line_3" class="st5" x1="-505.5" y1="-1274.7" x2="-505.5" y2="-1233.6"/>
	<line id="Line_4" class="st5" x1="-496" y1="-1258.9" x2="-496" y2="-1233.6"/>
	<path id="Path_535" class="st5" d="M-475.4-1285.8c3.3,0.1,6.2-2.4,6.3-5.8c0-0.2,0-0.4,0-0.5v-3.2c0.1-3.3-2.4-6.2-5.8-6.3
		c-0.2,0-0.4,0-0.5,0c-3.3-0.1-6.2,2.4-6.3,5.8c0,0.2,0,0.4,0,0.5v3.2c-0.1,3.3,2.4,6.2,5.8,6.3
		C-475.8-1285.8-475.6-1285.8-475.4-1285.8z"/>
	<path id="Path_536" class="st5" d="M-524.5-1254.2c-3,0-6.3-1.7-6.3-4.7v-14.2c0-5.2,9.3-7.9,14.2-7.9h1.6"/>
	<line id="Line_5" class="st5" x1="-524.5" y1="-1233.6" x2="-524.5" y2="-1270"/>
	<path id="Path_537" class="st5" d="M-516.6-1285.8c-3.3,0.1-6.2-2.4-6.3-5.8c0-0.2,0-0.4,0-0.5v-3.2c-0.1-3.3,2.4-6.2,5.8-6.3
		c0.2,0,0.4,0,0.5,0c3.3-0.1,6.2,2.4,6.3,5.8c0,0.2,0,0.4,0,0.5v3.2c0.1,3.3-2.4,6.2-5.8,6.3
		C-516.2-1285.8-516.4-1285.8-516.6-1285.8z"/>
</g>
</svg>
