<?xml version="1.0" encoding="utf-8"?>
<!-- Generator: Adobe Illustrator 21.1.0, SVG Export Plug-In . SVG Version: 6.00 Build 0)  -->
<svg version="1.1" id="Camada_1" xmlns="http://www.w3.org/2000/svg" xmlns:xlink="http://www.w3.org/1999/xlink" x="0px" y="0px"
	 viewBox="0 0 160 160" style="enable-background:new 0 0 160 160;" xml:space="preserve">
<style type="text/css">
	.st0{fill:#A2C037;}
	.st1{fill:none;stroke:#FFFFFF;stroke-width:5;stroke-linejoin:round;stroke-miterlimit:10;}
	.st2{fill:none;stroke:#FFFFFF;stroke-width:2;stroke-miterlimit:10;}
	.st3{fill:none;stroke:#FFFFFF;stroke-width:3;stroke-miterlimit:10;}
	.st4{fill:none;stroke:#A2C037;stroke-width:3;stroke-miterlimit:10;}
	.st5{fill:none;stroke:#FFFFFF;stroke-width:2;stroke-linejoin:round;stroke-miterlimit:10;}
</style>
<circle id="Ellipse_63_1_" class="st0" cx="80" cy="80" r="77.5"/>
<g id="Group_623" transform="translate(919 1345)">
	<path id="Path_538" class="st5" d="M-810.4-1296.1l-9.6-9.6l-49.2,49.2l9.6,9.6c2.8-2.8,7.3-2.7,10.1,0.1c2.7,2.8,2.7,7.2,0,10
		l9.6,9.6l49.2-49.2l-9.6-9.6c-2.8,2.7-7.3,2.7-10.1,0c-2.8-2.6-2.9-6.9-0.4-9.7C-810.7-1295.9-810.5-1296-810.4-1296.1z"/>
	<path id="Path_539" class="st5" d="M-842.9-1271.2l9,3.4l7.1-5.9l-0.2,9.4l7.5,5l-8.8,2.7l-2.7,8.8l-5-7.5l-9.4,0.2l5.9-7.1
		L-842.9-1271.2z"/>
	<path id="Path_540" class="st5" d="M-802.5-1263.2l-5.7-5.7 M-810.8-1271.6l-5.7-5.7 M-819.2-1280l-5.7-5.7 M-827.6-1288.4
		l-5.7-5.7"/>
	<path id="Path_541" class="st5" d="M-839.1-1295.5l-3.1-3.4l-45,45.2l9.6,9.6c2.8-2.8,7.3-2.8,10.1,0c2.8,2.8,2.8,7.3,0,10.1
		l9.6,9.6l6.3-6.3"/>
</g>
</svg>
