<?xml version="1.0" encoding="utf-8"?>
<!-- Generator: Adobe Illustrator 21.1.0, SVG Export Plug-In . SVG Version: 6.00 Build 0)  -->
<svg version="1.1" id="Camada_1" xmlns="http://www.w3.org/2000/svg" xmlns:xlink="http://www.w3.org/1999/xlink" x="0px" y="0px"
	 viewBox="0 0 160 160" style="enable-background:new 0 0 160 160;" xml:space="preserve">
<style type="text/css">
	.st0{fill:#A2C037;}
	.st1{fill:none;stroke:#FFFFFF;stroke-width:5;stroke-linejoin:round;stroke-miterlimit:10;}
	.st2{fill:none;stroke:#FFFFFF;stroke-width:2;stroke-miterlimit:10;}
	.st3{fill:none;stroke:#FFFFFF;stroke-width:3;stroke-miterlimit:10;}
	.st4{fill:none;stroke:#A2C037;stroke-width:3;stroke-miterlimit:10;}
	.st5{fill:none;stroke:#FFFFFF;stroke-width:2;stroke-linejoin:round;stroke-miterlimit:10;}
</style>
<circle id="Ellipse_63_2_" class="st0" cx="80" cy="80" r="77.5"/>
<g id="Group_624" transform="translate(1290.8 1342.8)">
	<path id="Path_542" class="st2" d="M-1231.3-1244.7l4.6-4.6c1.5-1.4,2.4-3.3,2.3-5.4c-0.2-3.8-1.3-6.5,1.2-9"/>
	<path id="Path_543" class="st2" d="M-1216.3-1259.7l11.2-11.2c1.9-2,5.1-2,7.1-0.1c0.1,0.1,0.2,0.2,0.2,0.3
		c5.6,6,15.8,17.5,13.1,20.4l-12.9,12.9c-3.3,3.3-10.2,2.1-11.9,3.7l-5.6,5.6"/>
	<path id="Path_544" class="st2" d="M-1215.5-1219.5l4.8-4.8l-23.3-23.3l-8.5,8.9"/>
	<line id="Line_6" class="st2" x1="-1234.8" y1="-1238.7" x2="-1230.9" y2="-1234.9"/>
	<path id="Path_545" class="st2" d="M-1208-1268c0.4-14-6.9-28.7-16.4-38.1c-3.5,1.9-9.4,6.7-15,12.3c-5.4,5.4-10.4,11.5-12.3,15
		c9.4,9.4,24.1,16.9,38.1,16.4"/>
	<line id="Line_7" class="st2" x1="-1184.9" y1="-1250.3" x2="-1180.9" y2="-1246.1"/>
	<line id="Line_8" class="st2" x1="-1193.2" y1="-1233.9" x2="-1197.2" y2="-1238"/>
	<path id="Path_546" class="st2" d="M-1184.9-1242l4-4l6.7-1.5l4.2,4.2l-20.4,20.4l-4.2-4l1.3-6.9l4.2-4"/>
	<path id="Path_547" class="st2" d="M-1229.8-1265.1c-2.7,5.2-12.5,4.4-17.7,1.3s-4-7.1-1.3-12.3"/>
	<path id="Path_548" class="st2" d="M-1210.7-1284.2c5.2-2.7,4.4-12.5,1.3-17.7s-7.1-4-12.3-1.3"/>
</g>
</svg>
