<svg xmlns="http://www.w3.org/2000/svg" viewBox="541 337.219 189.387 106.457">
  <defs>
    <style>
      .cls-1 {
        fill: #a2c037;
      }

      .cls-2 {
        fill: #1d3238;
      }

      .cls-3 {
        fill: #dc911b;
      }
    </style>
  </defs>
  <g id="Group_3" data-name="Group 3" transform="translate(541 337.219)">
    <path id="Path_1" data-name="Path 1" class="cls-1" d="M133.99,148.771l-11.332-11.332a7.5,7.5,0,0,1,1.968-.3,7.021,7.021,0,0,1,4.831,1.968,3.205,3.205,0,1,0,4.533-4.533,13.246,13.246,0,0,0-18.727,0h0a3.25,3.25,0,0,0-.417,4.055,1.607,1.607,0,0,0,.417.477h0l11.332,11.332a7.5,7.5,0,0,1-1.968.3,7.02,7.02,0,0,1-4.831-1.968,3.205,3.205,0,0,0-4.533,4.533,13.246,13.246,0,0,0,18.727,0h0A3.2,3.2,0,0,0,133.99,148.771Z" transform="translate(-46.14 -52.751)"/>
    <path id="Path_2" data-name="Path 2" class="cls-1" d="M162.74,157.18a13.24,13.24,0,1,1,13.24-13.24A13.248,13.248,0,0,1,162.74,157.18Zm0-20.218A7.038,7.038,0,1,0,169.778,144,7.129,7.129,0,0,0,162.74,136.962Z" transform="translate(-60.338 -52.751)"/>
    <path id="Path_3" data-name="Path 3" class="cls-1" d="M218.846,151.872l-1.968-1.968A11.574,11.574,0,1,0,196.6,142.27v11.749a3.1,3.1,0,0,0,6.2,0v-1.551a11.522,11.522,0,0,0,5.368,1.312,11.887,11.887,0,0,0,3.34-.477l2.922,2.922a3.063,3.063,0,0,0,2.207.895,3.164,3.164,0,0,0,2.207-.895A3.1,3.1,0,0,0,218.846,151.872ZM202.8,142.33a5.368,5.368,0,1,1,5.368,5.368A5.345,5.345,0,0,1,202.8,142.33Z" transform="translate(-79.348 -52.751)"/>
    <path id="Path_4" data-name="Path 4" class="cls-2" d="M70.04,130.4a13.24,13.24,0,1,0,0,26.48,12.8,12.8,0,0,0,7.157-2.147,3.085,3.085,0,0,0,6.024-.954V143.64A13.2,13.2,0,0,0,70.04,130.4Zm0,20.218a7.038,7.038,0,1,1,7.038-7.038A7.051,7.051,0,0,1,70.04,150.618Z" transform="translate(-22.924 -52.63)"/>
    <path id="Path_5" data-name="Path 5" class="cls-2" d="M32.979,117.9a3.08,3.08,0,0,0-3.1,3.1v6.262a13.239,13.239,0,1,0-7.038,24.452A12.8,12.8,0,0,0,30,149.569a3.085,3.085,0,0,0,6.024-.954V121.061A2.975,2.975,0,0,0,32.979,117.9ZM22.9,145.454a7.038,7.038,0,1,1,7.038-7.038A7.051,7.051,0,0,1,22.9,145.454Z" transform="translate(-3.875 -47.584)"/>
    <g id="Group_1" data-name="Group 1" transform="translate(45.118 56.777)">
      <path id="Path_6" data-name="Path 6" class="cls-3" d="M250.067,95.2H239.987a2.087,2.087,0,1,0,0,4.175h2.982v11.391a2.087,2.087,0,1,0,4.175,0V99.375h2.982a2.074,2.074,0,0,0,2.087-2.087A2.206,2.206,0,0,0,250.067,95.2Z" transform="translate(-141.134 -95.2)"/>
      <path id="Path_7" data-name="Path 7" class="cls-3" d="M88.681,107.188l-7.515-7.515a4.652,4.652,0,0,1,1.312-.179,4.717,4.717,0,0,1,3.221,1.312,2.151,2.151,0,1,0,3.042-3.042,8.783,8.783,0,0,0-12.405,0h0a2.168,2.168,0,0,0-.3,2.684,1.582,1.582,0,0,0,.3.358h0l7.515,7.515a4.651,4.651,0,0,1-1.312.179,4.717,4.717,0,0,1-3.221-1.312,2.151,2.151,0,0,0-3.042,3.042,8.783,8.783,0,0,0,12.405,0h0A2.16,2.16,0,0,0,88.681,107.188Z" transform="translate(-75.65 -95.2)"/>
      <path id="Path_8" data-name="Path 8" class="cls-3" d="M307.581,107.188l-7.515-7.515a4.652,4.652,0,0,1,1.312-.179,4.717,4.717,0,0,1,3.221,1.312,2.151,2.151,0,0,0,3.042-3.042,8.783,8.783,0,0,0-12.405,0h0a2.168,2.168,0,0,0-.3,2.684,1.579,1.579,0,0,0,.3.358h0l7.515,7.515a4.651,4.651,0,0,1-1.312.179,4.717,4.717,0,0,1-3.221-1.312,2.151,2.151,0,0,0-3.042,3.042,8.783,8.783,0,0,0,12.405,0h0A2.16,2.16,0,0,0,307.581,107.188Z" transform="translate(-163.998 -95.2)"/>
      <path id="Path_9" data-name="Path 9" class="cls-3" d="M148.817,95.2a7.124,7.124,0,0,0-5.01,2.087A6.982,6.982,0,0,0,138.8,95.2a7.076,7.076,0,0,0-7.1,7.1v8.409a2.087,2.087,0,1,0,4.175,0V102.3a2.982,2.982,0,1,1,5.964,0v1.67a2.087,2.087,0,1,0,4.175,0V102.3a2.982,2.982,0,1,1,5.964,0v8.409a2.087,2.087,0,0,0,4.175,0V102.3A7.443,7.443,0,0,0,148.817,95.2Z" transform="translate(-98.272 -95.2)"/>
      <path id="Path_10" data-name="Path 10" class="cls-3" d="M215.527,95.2a8.8,8.8,0,0,0-4.771,1.431,2.08,2.08,0,0,0-4.055.656v13.419a2.087,2.087,0,0,0,4.175,0v-6.739a4.652,4.652,0,1,1,9.3,0v6.739a2.087,2.087,0,1,0,4.175,0v-6.739A8.871,8.871,0,0,0,215.527,95.2Z" transform="translate(-128.542 -95.2)"/>
      <path id="Path_11" data-name="Path 11" class="cls-3" d="M109.167,95.2a8.767,8.767,0,1,0,0,17.534,2.087,2.087,0,1,0,0-4.175,4.654,4.654,0,0,1-4.175-2.624h10.914a2.074,2.074,0,0,0,2.087-2.087A8.849,8.849,0,0,0,109.167,95.2Zm0,4.115a4.654,4.654,0,0,1,4.175,2.624h-8.35A4.654,4.654,0,0,1,109.167,99.315Z" transform="translate(-85.639 -95.2)"/>
      <path id="Path_12" data-name="Path 12" class="cls-3" d="M183.567,95.2a8.767,8.767,0,0,0,0,17.534,2.087,2.087,0,1,0,0-4.175,4.654,4.654,0,0,1-4.175-2.624h10.914a2.074,2.074,0,0,0,2.087-2.087A8.848,8.848,0,0,0,183.567,95.2Zm0,4.115a4.654,4.654,0,0,1,4.175,2.624h-8.35A4.588,4.588,0,0,1,183.567,99.315Z" transform="translate(-115.667 -95.2)"/>
      <path id="Path_13" data-name="Path 13" class="cls-3" d="M272.367,95.2a8.767,8.767,0,1,0,0,17.534,2.087,2.087,0,1,0,0-4.175,4.654,4.654,0,0,1-4.175-2.624h10.914a2.074,2.074,0,0,0,2.087-2.087A8.849,8.849,0,0,0,272.367,95.2Zm0,4.115a4.654,4.654,0,0,1,4.175,2.624h-8.35A4.654,4.654,0,0,1,272.367,99.315Z" transform="translate(-151.507 -95.2)"/>
    </g>
    <path id="Path_14" data-name="Path 14" class="cls-1" d="M254.65,130.8H239.5a3.1,3.1,0,1,0,0,6.2h4.473v17.117a3.1,3.1,0,0,0,6.2,0V137h4.473a3.08,3.08,0,0,0,3.1-3.1A3.118,3.118,0,0,0,254.65,130.8Z" transform="translate(-95.411 -52.791)"/>
    <path id="Path_15" data-name="Path 15" class="cls-1" d="M286.24,130.8a13.24,13.24,0,0,0,0,26.48,3.1,3.1,0,0,0,0-6.2,6.982,6.982,0,0,1-6.262-3.936h16.4a3.08,3.08,0,0,0,3.1-3.1A13.21,13.21,0,0,0,286.24,130.8Zm0,6.2a6.982,6.982,0,0,1,6.262,3.936H279.918A7.14,7.14,0,0,1,286.24,137Z" transform="translate(-110.183 -52.791)"/>
    <path id="Path_16" data-name="Path 16" class="cls-1" d="M132.992,133.881h-3.7a.917.917,0,0,1-.895-.895v-4.592a.917.917,0,0,1,.895-.895h3.7a.917.917,0,0,1,.895.895v4.652A.956.956,0,0,1,132.992,133.881Z" transform="translate(-51.822 -51.459)"/>
    <path id="Path_17" data-name="Path 17" class="cls-1" d="M132.992,174.141h-3.7a.917.917,0,0,1-.895-.895v-4.652a.917.917,0,0,1,.895-.895h3.7a.917.917,0,0,1,.895.895v4.652A.962.962,0,0,1,132.992,174.141Z" transform="translate(-51.822 -67.684)"/>
    <g id="Group_2" data-name="Group 2">
      <path id="Path_18" data-name="Path 18" class="cls-3" d="M89.67,57.883a6.048,6.048,0,1,0,6.56,5.487A6.031,6.031,0,0,0,89.67,57.883Zm1.551,9.662.119,1.193-1.431.119-.119-1.074a5.722,5.722,0,0,1-2.445-.358l.3-1.789a5.051,5.051,0,0,0,2.445.358c.656-.06,1.074-.239,1.074-.656-.06-.358-.417-.537-1.431-.656-1.431-.239-2.565-.775-2.684-2.028-.119-1.193.656-2.147,2.147-2.5l-.119-1.074,1.431-.119.06.954a5.129,5.129,0,0,1,2.087.239l-.3,1.73a5.276,5.276,0,0,0-2.087-.3c-.775.06-.954.358-.895.6,0,.3.537.477,1.67.716,1.73.3,2.386.895,2.5,2.087A2.579,2.579,0,0,1,91.221,67.545Z" transform="translate(-33.966 -23.352)"/>
      <path id="Path_19" data-name="Path 19" class="cls-3" d="M41.07,56.683a6.048,6.048,0,1,0,6.56,5.487A6.031,6.031,0,0,0,41.07,56.683Zm1.551,9.662.119,1.193-1.431.119-.119-1.074a5.722,5.722,0,0,1-2.445-.358l.3-1.789a5.051,5.051,0,0,0,2.445.358c.656-.06,1.074-.239,1.074-.656-.06-.358-.417-.537-1.431-.656-1.431-.239-2.565-.775-2.684-2.028-.119-1.193.656-2.147,2.147-2.5l-.119-1.074,1.431-.119.06.954a5.13,5.13,0,0,1,2.087.239l-.3,1.73a5.276,5.276,0,0,0-2.087-.3c-.775.06-.954.358-.895.6,0,.3.537.477,1.67.716,1.73.3,2.386.895,2.5,2.087A2.632,2.632,0,0,1,42.621,66.345Z" transform="translate(-14.352 -22.867)"/>
      <path id="Path_20" data-name="Path 20" class="cls-3" d="M17.969,47.884a3.954,3.954,0,0,0-3.578,4.294,3.914,3.914,0,0,0,4.294,3.578,3.954,3.954,0,0,0,3.578-4.294A3.874,3.874,0,0,0,17.969,47.884Zm1.014,6.322.06.775-.954.06-.06-.716a5.405,5.405,0,0,1-1.61-.239l.179-1.133a3.4,3.4,0,0,0,1.61.239c.417-.06.716-.179.716-.417s-.3-.358-.954-.417c-.954-.119-1.67-.477-1.789-1.312-.06-.775.417-1.372,1.372-1.61l-.06-.716.954-.06.06.656a4.488,4.488,0,0,1,1.372.119L19.7,50.568a3.565,3.565,0,0,0-1.372-.179c-.477.06-.6.239-.6.358,0,.179.358.3,1.074.477,1.133.179,1.551.6,1.61,1.372C20.534,53.252,20.057,53.908,18.983,54.206Z" transform="translate(-5.803 -19.317)"/>
      <path id="Path_21" data-name="Path 21" class="cls-3" d="M93.169,34.491a3.952,3.952,0,1,0,4.294,3.578A3.954,3.954,0,0,0,93.169,34.491Zm1.014,6.322.06.775-.954.06-.06-.716a5.4,5.4,0,0,1-1.61-.239L91.8,39.56a3.4,3.4,0,0,0,1.61.239c.417-.06.716-.179.716-.417s-.3-.358-.954-.417c-.954-.119-1.67-.477-1.789-1.312-.06-.775.417-1.372,1.372-1.61l-.06-.716.954-.06.06.656a4.488,4.488,0,0,1,1.372.119L94.9,37.175A3.565,3.565,0,0,0,93.527,37c-.477.06-.6.239-.6.358,0,.179.358.3,1.074.477,1.133.179,1.551.6,1.61,1.372C95.734,39.858,95.257,40.574,94.183,40.813Z" transform="translate(-36.153 -13.915)"/>
      <path id="Path_22" data-name="Path 22" class="cls-3" d="M69.269,26.691a3.952,3.952,0,1,0,4.294,3.578A3.954,3.954,0,0,0,69.269,26.691Zm1.014,6.322.06.775-.895.119-.06-.716a5.4,5.4,0,0,1-1.61-.239l.179-1.133a3.4,3.4,0,0,0,1.61.239c.417-.06.716-.179.716-.417s-.3-.358-.954-.417c-.954-.119-1.67-.477-1.789-1.312-.06-.775.417-1.372,1.372-1.61l-.06-.835.954-.06.06.656a4.488,4.488,0,0,1,1.372.119l-.179,1.133a3.565,3.565,0,0,0-1.372-.179c-.477.06-.6.239-.6.358,0,.179.358.3,1.074.477,1.133.179,1.551.6,1.61,1.372A1.687,1.687,0,0,1,70.283,33.013Z" transform="translate(-26.507 -10.767)"/>
      <path id="Path_23" data-name="Path 23" class="cls-3" d="M44.969,33.791a3.952,3.952,0,1,0,4.294,3.578A4.026,4.026,0,0,0,44.969,33.791Zm1.014,6.322.06.775-.954.06-.06-.716a5.4,5.4,0,0,1-1.61-.239L43.6,38.86a3.4,3.4,0,0,0,1.61.239c.417-.06.716-.179.716-.417s-.3-.358-.954-.417c-.954-.119-1.67-.477-1.789-1.312-.06-.775.417-1.372,1.372-1.61l-.06-.716.954-.06.06.656a4.488,4.488,0,0,1,1.372.119L46.7,36.475a3.565,3.565,0,0,0-1.372-.179c-.477.06-.6.239-.6.358,0,.179.358.3,1.074.477,1.133.179,1.551.6,1.61,1.372C47.474,39.218,47,39.874,45.983,40.113Z" transform="translate(-16.7 -13.633)"/>
      <path id="Path_24" data-name="Path 24" class="cls-3" d="M22.869,24.191a3.952,3.952,0,1,0,4.294,3.578A3.954,3.954,0,0,0,22.869,24.191Zm1.074,6.322.06.775-.954.06-.06-.716a5.4,5.4,0,0,1-1.61-.239l.179-1.133a3.4,3.4,0,0,0,1.61.239c.417-.06.716-.179.716-.417s-.3-.358-.954-.417c-.954-.119-1.67-.477-1.789-1.312-.06-.775.417-1.372,1.372-1.61l-.06-.716.954-.06.06.656a4.488,4.488,0,0,1,1.372.119l-.179,1.133a3.565,3.565,0,0,0-1.372-.179c-.477.06-.6.239-.6.358,0,.179.358.3,1.074.477,1.133.179,1.551.6,1.61,1.372A1.615,1.615,0,0,1,23.943,30.513Z" transform="translate(-7.78 -9.758)"/>
      <path id="Path_25" data-name="Path 25" class="cls-3" d="M61.969.391a3.954,3.954,0,0,0-3.578,4.294,3.952,3.952,0,1,0,7.872-.716A3.954,3.954,0,0,0,61.969.391Zm1.014,6.322.06.775-.954.06-.06-.716a5.4,5.4,0,0,1-1.61-.239L60.6,5.46a3.4,3.4,0,0,0,1.61.239c.417-.06.716-.179.716-.417s-.3-.358-.954-.417c-.954-.119-1.67-.477-1.789-1.312-.06-.775.417-1.372,1.372-1.61l-.06-.716.954-.06.06.656a4.488,4.488,0,0,1,1.372.119L63.7,3.075a2.293,2.293,0,0,0-1.372-.239c-.477.06-.6.239-.6.358,0,.179.358.3,1.074.477,1.133.179,1.551.6,1.61,1.372C64.534,5.758,64.057,6.474,62.983,6.713Z" transform="translate(-23.561 -0.152)"/>
      <path id="Path_26" data-name="Path 26" class="cls-3" d="M12.213,74.887a5,5,0,1,0,5.427,4.533A4.969,4.969,0,0,0,12.213,74.887Zm1.312,8.051.06,1.014-1.193.119-.06-.895a4.849,4.849,0,0,1-2.028-.3l.239-1.491a4.288,4.288,0,0,0,2.028.3c.537-.06.895-.179.895-.537,0-.3-.358-.417-1.193-.537-1.193-.179-2.147-.6-2.266-1.73A2.025,2.025,0,0,1,11.8,76.8l-.06-.895,1.193-.119.06.835a4.634,4.634,0,0,1,1.73.179l-.239,1.431a5.085,5.085,0,0,0-1.73-.239c-.656.06-.775.3-.775.477,0,.239.477.417,1.372.6,1.431.239,1.968.775,2.087,1.73A2.14,2.14,0,0,1,13.526,82.939Z" transform="translate(-3.089 -30.217)"/>
      <path id="Path_27" data-name="Path 27" class="cls-3" d="M38.213,96.687a5,5,0,1,0,5.427,4.533A5.052,5.052,0,0,0,38.213,96.687Zm1.252,8.051.06,1.014-1.193.119-.06-.895a4.85,4.85,0,0,1-2.028-.3l.239-1.491a4.288,4.288,0,0,0,2.028.3c.537-.06.895-.179.895-.537,0-.3-.358-.417-1.193-.537-1.193-.179-2.147-.6-2.266-1.73A2.025,2.025,0,0,1,37.736,98.6l-.06-.895,1.193-.119.06.835a4.635,4.635,0,0,1,1.73.179l-.239,1.431a5.085,5.085,0,0,0-1.73-.239c-.656.06-.775.3-.775.477,0,.239.477.417,1.372.6,1.431.239,1.968.775,2.087,1.73A2.14,2.14,0,0,1,39.466,104.739Z" transform="translate(-13.582 -39.016)"/>
      <path id="Path_28" data-name="Path 28" class="cls-2" d="M56.468,78.69S58.674,33.84,51.1,10.7C63.744,30.262,63.445,60.2,61.537,80.6,60.941,82.447,56.468,78.69,56.468,78.69Z" transform="translate(-20.624 -4.319)"/>
      <path id="Path_29" data-name="Path 29" class="cls-2" d="M48.96,101.578C49.318,94,35.839,86.609,29.1,92.573a12.736,12.736,0,0,1,12.942-4.115c2.922.835,6.739-.239,6.739-3.221.06-2.982-.358,12.167-.358,12.167Z" transform="translate(-11.745 -34.245)"/>
      <path id="Path_30" data-name="Path 30" class="cls-2" d="M65.6,86.49c-.3-5.01,12.107-7.4,16.7-3.936-2.207-3.4-7.276-4.115-11.093-3.578-3.519.477-5.9,2.207-6.2-.835-.3-2.982-2.8,4.831-2.8,4.831Z" transform="translate(-25.104 -31.264)"/>
      <path id="Path_31" data-name="Path 31" class="cls-2" d="M45.349,59.909c-.358-6.322-14.731-13.359-21.649-13.6,8.767-.835,16.1,2.565,17.653,3.1,2.087.716,3.28-.06,3.042-2.624s1.849,7.574,1.789,8.707A42.7,42.7,0,0,1,45.349,59.909Z" transform="translate(-9.565 -18.638)"/>
      <path id="Path_32" data-name="Path 32" class="cls-2" d="M58.779,33.521c-1.193-4.473,4.056-8.529,6.5-9.721a13.042,13.042,0,0,0-6.62,3.34c-.537.537-1.491.358-2.147-1.551-.656-1.968.06,6.262.06,6.262Z" transform="translate(-22.697 -9.606)"/>
      <path id="Path_33" data-name="Path 33" class="cls-2" d="M64.363,64.8c-.537-4.115,14.314-12.345,22.723-8.588-3.459-2.8-10.616-2.326-14.791-.954s-8.648,3.817-9.065,1.312c-.477-2.565-1.73,2.147-1.73,2.147Z" transform="translate(-24.821 -21.862)"/>
      <path id="Path_34" data-name="Path 34" class="cls-2" d="M72.06,49.922s-1.908-.537.179-1.312,8.767-11.57,8.827-14.91c.537,4.175-1.968,8.946-2.743,10.437s-1.908,3.757-1.908,3.757Z" transform="translate(-28.762 -13.601)"/>
      <path id="Path_35" data-name="Path 35" class="cls-2" d="M37.261,52.546C35.71,51.472,25.333,56.363,20.8,63.46c2.8-8.23,12.882-13.18,14.612-13.061C37.2,50.518,37.261,52.546,37.261,52.546Z" transform="translate(-8.395 -20.34)"/>
      <path id="Path_36" data-name="Path 36" class="cls-1" d="M88.631,13.167a8.036,8.036,0,0,0-8.35,10.676,7.958,7.958,0,0,0,7.1-3.042A7.8,7.8,0,0,0,88.631,13.167Z" transform="translate(-32.211 -5.294)"/>
      <path id="Path_37" data-name="Path 37" class="cls-1" d="M77.623,5.1a6.906,6.906,0,0,0-5.368,4,6.8,6.8,0,0,0,.477,6.68A6.968,6.968,0,0,0,77.623,5.1Z" transform="translate(-28.897 -2.058)"/>
      <path id="Path_38" data-name="Path 38" class="cls-1" d="M60.27,15A4.284,4.284,0,0,0,59.2,22.157,4.284,4.284,0,0,0,60.27,15Z" transform="translate(-23.293 -6.054)"/>
      <path id="Path_39" data-name="Path 39" class="cls-1" d="M53.168,0A4.211,4.211,0,0,0,51.2,3.638a4.348,4.348,0,0,0,1.968,3.638,4.211,4.211,0,0,0,1.968-3.638A4.211,4.211,0,0,0,53.168,0Z" transform="translate(-20.664)"/>
      <path id="Path_40" data-name="Path 40" class="cls-1" d="M38.01,2.9a8.5,8.5,0,0,0-1.67,8.111,8.466,8.466,0,0,0,5.9,5.785,8.5,8.5,0,0,0,1.67-8.111A8.466,8.466,0,0,0,38.01,2.9Z" transform="translate(-14.512 -1.17)"/>
      <path id="Path_41" data-name="Path 41" class="cls-1" d="M25.6,10.3a6.234,6.234,0,0,0,.417,6.024,6.161,6.161,0,0,0,5.308,2.863,6.234,6.234,0,0,0-.417-6.024A6.091,6.091,0,0,0,25.6,10.3Z" transform="translate(-10.096 -4.155)"/>
      <path id="Path_42" data-name="Path 42" class="cls-1" d="M16.066,18.316a3.119,3.119,0,0,0,.954,2.863,3.015,3.015,0,0,0,2.922.716,3.119,3.119,0,0,0-.954-2.863A3.015,3.015,0,0,0,16.066,18.316Z" transform="translate(-6.464 -7.342)"/>
      <path id="Path_43" data-name="Path 43" class="cls-1" d="M9.6,26.1a3.6,3.6,0,0,0,1.551,3.042,3.5,3.5,0,0,0,3.4.3A3.6,3.6,0,0,0,13,26.4,3.662,3.662,0,0,0,9.6,26.1Z" transform="translate(-3.872 -10.418)"/>
      <path id="Path_44" data-name="Path 44" class="cls-1" d="M29.3,39.275a3.5,3.5,0,0,0,2.147,2.684,3.576,3.576,0,0,0,3.4-.358A3.572,3.572,0,0,0,29.3,39.275Z" transform="translate(-11.825 -15.598)"/>
      <path id="Path_45" data-name="Path 45" class="cls-1" d="M33.4,33.327a2.451,2.451,0,0,0,1.252,2.147,2.513,2.513,0,0,0,2.5.119A2.451,2.451,0,0,0,35.9,33.447,2.669,2.669,0,0,0,33.4,33.327Z" transform="translate(-13.48 -13.348)"/>
      <path id="Path_46" data-name="Path 46" class="cls-1" d="M4.4,35.284A7.312,7.312,0,0,0,8.933,40.89a7.4,7.4,0,0,0,7.157-.775,7.312,7.312,0,0,0-4.533-5.606A7.383,7.383,0,0,0,4.4,35.284Z" transform="translate(-1.776 -13.694)"/>
      <path id="Path_47" data-name="Path 47" class="cls-1" d="M1.2,47.756A4.429,4.429,0,0,0,4.659,50.38a4.5,4.5,0,0,0,4.115-1.491,4.429,4.429,0,0,0-3.459-2.624A4.5,4.5,0,0,0,1.2,47.756Z" transform="translate(-0.484 -18.651)"/>
      <path id="Path_48" data-name="Path 48" class="cls-1" d="M0,57.684a4.812,4.812,0,0,0,4.175,2.147A4.973,4.973,0,0,0,8.29,57.445,4.812,4.812,0,0,0,4.115,55.3,4.892,4.892,0,0,0,0,57.684Z" transform="translate(0 -22.317)"/>
      <path id="Path_49" data-name="Path 49" class="cls-1" d="M2,68.292a6.792,6.792,0,0,0,6.441,1.73,6.926,6.926,0,0,0,4.95-4.533,6.792,6.792,0,0,0-6.441-1.73A6.926,6.926,0,0,0,2,68.292Z" transform="translate(-0.807 -25.649)"/>
      <path id="Path_50" data-name="Path 50" class="cls-1" d="M21.2,72.276a5.371,5.371,0,0,0,5.129.537,5.206,5.206,0,0,0,3.161-4.056,5.371,5.371,0,0,0-5.129-.537A5.457,5.457,0,0,0,21.2,72.276Z" transform="translate(-8.556 -27.367)"/>
      <path id="Path_51" data-name="Path 51" class="cls-1" d="M26.7,81.085a4.851,4.851,0,0,0,4.89-.477,5.059,5.059,0,0,0,2.266-4.413,4.851,4.851,0,0,0-4.89.477A5.128,5.128,0,0,0,26.7,81.085Z" transform="translate(-10.774 -30.57)"/>
      <path id="Path_52" data-name="Path 52" class="cls-1" d="M18.812,95.383a5.922,5.922,0,0,0,5.547-1.551,5.99,5.99,0,0,0,1.73-5.547,5.921,5.921,0,0,0-5.547,1.551A6.035,6.035,0,0,0,18.812,95.383Z" transform="translate(-7.54 -35.564)"/>
      <path id="Path_53" data-name="Path 53" class="cls-1" d="M38.085,84.3a5.871,5.871,0,0,0,5.725-.716,6.036,6.036,0,0,0,2.5-5.189,5.871,5.871,0,0,0-5.725.716A5.639,5.639,0,0,0,38.085,84.3Z" transform="translate(-15.362 -31.462)"/>
      <path id="Path_54" data-name="Path 54" class="cls-1" d="M50.951,86.689a3.473,3.473,0,0,0,2.982-1.73,3.573,3.573,0,0,0,.119-3.459,3.473,3.473,0,0,0-2.982,1.73A3.747,3.747,0,0,0,50.951,86.689Z" transform="translate(-20.415 -32.893)"/>
      <path id="Path_55" data-name="Path 55" class="cls-1" d="M26.74,103.44a3.363,3.363,0,0,0,3.042-1.372,3.32,3.32,0,0,0,.477-3.28,3.363,3.363,0,0,0-3.042,1.372A3.32,3.32,0,0,0,26.74,103.44Z" transform="translate(-10.697 -39.864)"/>
      <path id="Path_56" data-name="Path 56" class="cls-1" d="M52.329,112.045a3.493,3.493,0,0,0,1.73-2.863,3.4,3.4,0,0,0-1.431-2.982,3.493,3.493,0,0,0-1.73,2.863A3.4,3.4,0,0,0,52.329,112.045Z" transform="translate(-20.54 -42.862)"/>
      <path id="Path_57" data-name="Path 57" class="cls-1" d="M28.5,50.67a3.122,3.122,0,0,0,2.565,1.73,3.044,3.044,0,0,0,2.8-1.193,3.122,3.122,0,0,0-2.565-1.73A2.972,2.972,0,0,0,28.5,50.67Z" transform="translate(-11.503 -19.955)"/>
      <path id="Path_58" data-name="Path 58" class="cls-1" d="M37.458,25.1a3.779,3.779,0,0,0,.239,3.638,3.726,3.726,0,0,0,3.221,1.73,3.779,3.779,0,0,0-.239-3.638A3.658,3.658,0,0,0,37.458,25.1Z" transform="translate(-14.974 -10.128)"/>
      <path id="Path_59" data-name="Path 59" class="cls-1" d="M49.149,23.3a3.8,3.8,0,0,0,1.431,6.262,3.734,3.734,0,0,0,1.014-3.519A3.6,3.6,0,0,0,49.149,23.3Z" transform="translate(-19.389 -9.404)"/>
      <path id="Path_60" data-name="Path 60" class="cls-1" d="M67.523,14.4a3.242,3.242,0,0,0-1.968,2.386,3.085,3.085,0,0,0,.954,2.922A3.2,3.2,0,0,0,67.523,14.4Z" transform="translate(-26.431 -5.812)"/>
      <path id="Path_61" data-name="Path 61" class="cls-1" d="M99.177,22.714a5.5,5.5,0,0,0-5.368.656,5.372,5.372,0,0,0-2.326,4.89,5.5,5.5,0,0,0,5.368-.656A5.714,5.714,0,0,0,99.177,22.714Z" transform="translate(-36.913 -8.997)"/>
      <path id="Path_62" data-name="Path 62" class="cls-1" d="M79.314,38.538a4.611,4.611,0,0,0-4.294,1.372,4.469,4.469,0,0,0-1.133,4.354,4.611,4.611,0,0,0,4.294-1.372A4.808,4.808,0,0,0,79.314,38.538Z" transform="translate(-29.753 -15.517)"/>
      <path id="Path_63" data-name="Path 63" class="cls-1" d="M68.97,42.177a3.85,3.85,0,0,0-3.459,1.431,3.739,3.739,0,0,0-.656,3.638,3.88,3.88,0,0,0,4.115-5.069Z" transform="translate(-26.089 -17.009)"/>
      <path id="Path_64" data-name="Path 64" class="cls-1" d="M72.324,50.562a3.751,3.751,0,0,0-3.7.3,3.692,3.692,0,0,0-1.73,3.28,3.751,3.751,0,0,0,3.7-.3A3.692,3.692,0,0,0,72.324,50.562Z" transform="translate(-26.998 -20.265)"/>
      <path id="Path_65" data-name="Path 65" class="cls-1" d="M108.923,49.059a5.546,5.546,0,0,0-4.89-2.266A5.457,5.457,0,0,0,99.5,49.715a5.589,5.589,0,0,0,9.423-.656Z" transform="translate(-40.158 -18.881)"/>
      <path id="Path_66" data-name="Path 66" class="cls-1" d="M110.794,60.036a4.491,4.491,0,0,0-3.638-2.445,4.717,4.717,0,0,0-4.056,1.73,4.491,4.491,0,0,0,3.638,2.445A4.37,4.37,0,0,0,110.794,60.036Z" transform="translate(-41.611 -23.239)"/>
      <path id="Path_67" data-name="Path 67" class="cls-1" d="M103.355,84.41a4.955,4.955,0,0,0-2.565-4.175,5.1,5.1,0,0,0-4.89-.119,4.955,4.955,0,0,0,2.565,4.175A4.8,4.8,0,0,0,103.355,84.41Z" transform="translate(-38.705 -32.106)"/>
      <path id="Path_68" data-name="Path 68" class="cls-1" d="M79.781,90.013a3.151,3.151,0,0,0-.239-2.982A3.064,3.064,0,0,0,76.918,85.6a3.151,3.151,0,0,0,.239,2.982A3.064,3.064,0,0,0,79.781,90.013Z" transform="translate(-30.935 -34.548)"/>
      <path id="Path_69" data-name="Path 69" class="cls-1" d="M79.385,73.443a6.166,6.166,0,0,0-3.161-5.129A6.044,6.044,0,0,0,70.2,68.2a6.291,6.291,0,0,0,9.185,5.248Z" transform="translate(-28.333 -27.222)"/>
      <path id="Path_70" data-name="Path 70" class="cls-1" d="M80.077,64.668a2.533,2.533,0,0,0-1.491-1.908A2.415,2.415,0,0,0,76.2,63a2.533,2.533,0,0,0,1.491,1.908A2.431,2.431,0,0,0,80.077,64.668Z" transform="translate(-30.754 -25.246)"/>
      <path id="Path_71" data-name="Path 71" class="cls-1" d="M108.968,77.478a3.1,3.1,0,0,0-2.386-2.028,3.164,3.164,0,0,0-2.982.895,3.1,3.1,0,0,0,2.386,2.028A3.164,3.164,0,0,0,108.968,77.478Z" transform="translate(-41.813 -30.422)"/>
      <path id="Path_72" data-name="Path 72" class="cls-1" d="M111.268,69.823a3.124,3.124,0,0,0-2.386-1.968,3.194,3.194,0,0,0-2.982.954,3.124,3.124,0,0,0,2.386,1.968A3.194,3.194,0,0,0,111.268,69.823Z" transform="translate(-42.741 -27.359)"/>
      <path id="Path_73" data-name="Path 73" class="cls-1" d="M110.047,41.221a3.432,3.432,0,0,0-3.221-.716,3.379,3.379,0,0,0-2.326,2.326,3.432,3.432,0,0,0,3.221.716A3.379,3.379,0,0,0,110.047,41.221Z" transform="translate(-42.176 -16.291)"/>
      <path id="Path_74" data-name="Path 74" class="cls-1" d="M90.247,48.721A3.432,3.432,0,0,0,87.026,48,3.379,3.379,0,0,0,84.7,50.331a3.432,3.432,0,0,0,3.221.716A3.494,3.494,0,0,0,90.247,48.721Z" transform="translate(-34.185 -19.318)"/>
      <path id="Path_75" data-name="Path 75" class="cls-1" d="M107.473,32.807a2.741,2.741,0,0,0-2.863-.06A2.926,2.926,0,0,0,103,35.133a2.741,2.741,0,0,0,2.863.06A3.011,3.011,0,0,0,107.473,32.807Z" transform="translate(-41.571 -13.066)"/>
    </g>
  </g>
</svg>
