<?xml version="1.0" encoding="UTF-8"?>
<!DOCTYPE svg PUBLIC "-//W3C//DTD SVG 1.1//EN" "http://www.w3.org/Graphics/SVG/1.1/DTD/svg11.dtd">
<!-- Creator: CorelDRAW X8 -->
<svg xmlns="http://www.w3.org/2000/svg" xml:space="preserve" width="100%" height="100%" version="1.1" style="shape-rendering:geometricPrecision; text-rendering:geometricPrecision; image-rendering:optimizeQuality; fill-rule:evenodd; clip-rule:evenodd"
viewBox="0 0 8413 1857"
 xmlns:xlink="http://www.w3.org/1999/xlink">
 <defs>
  <style type="text/css">
   <![CDATA[
    .fil0 {fill:#00444F}
    .fil2 {fill:url(#id0)}
    .fil3 {fill:url(#id1)}
    .fil1 {fill:url(#id2)}
   ]]>
  </style>
  <linearGradient id="id0" gradientUnits="userSpaceOnUse" x1="1490.38" y1="6.22" x2="1490.38" y2="822.1">
   <stop offset="0" style="stop-opacity:1; stop-color:#00AEA5"/>
   <stop offset="1" style="stop-opacity:1; stop-color:#00776F"/>
  </linearGradient>
  <linearGradient id="id1" gradientUnits="userSpaceOnUse" x1="275.26" y1="604.3" x2="973.74" y2="180.06">
   <stop offset="0" style="stop-opacity:1; stop-color:#85C141"/>
   <stop offset="1" style="stop-opacity:1; stop-color:#568429"/>
  </linearGradient>
  <linearGradient id="id2" gradientUnits="userSpaceOnUse" x1="1406.45" y1="1364.61" x2="700.3" y2="943.38">
   <stop offset="0" style="stop-opacity:1; stop-color:#CCD528"/>
   <stop offset="1" style="stop-opacity:1; stop-color:#8A9218"/>
  </linearGradient>
 </defs>
 <g id="Camada_x0020_1">
  <metadata id="CorelCorpID_0Corel-Layer"/>
  <path class="fil0" d="M4446 1293c-230,0 -366,-141 -366,-367 0,-254 167,-367 358,-367 100,0 204,30 232,45 59,-135 44,-319 -247,-319 -372,0 -695,224 -695,664 0,332 206,622 673,622 149,0 267,-27 313,-51l-46 -262c-52,21 -143,35 -222,35zm-1700 -496c-158,-59 -225,-84 -225,-147 0,-55 56,-92 158,-92 124,0 248,46 270,59 48,-128 75,-332 -266,-332 -316,0 -503,171 -503,392 0,185 141,300 352,375 141,49 197,82 197,144 0,63 -56,101 -171,101 -126,0 -248,-38 -324,-77l-63 276c71,37 217,76 367,76 365,0 532,-184 532,-399 0,-174 -100,-293 -324,-376zm487 -493l0 1249 336 0 0 -1045c0,-157 -85,-204 -336,-204zm4665 1017c-14,1 -28,2 -43,2 -43,0 -72,0 -97,-4l0 -298 80 0c21,0 41,1 60,3 95,12 163,55 163,143 0,97 -72,143 -163,154zm-140 -778c23,-4 54,-8 110,-8 10,0 20,1 30,2 93,7 139,51 139,117 0,65 -46,110 -139,125 -22,3 -46,5 -73,5l-67 0 0 -241zm410 335l0 -3c147,-56 204,-158 204,-262 0,-122 -70,-211 -168,-257 -82,-41 -172,-57 -306,-61 -24,0 -49,0 -76,0 -154,0 -319,12 -395,27l0 1223c67,14 178,23 330,23 51,0 98,-1 141,-5 183,-12 299,-50 374,-106 84,-63 141,-156 141,-275 0,-148 -93,-261 -245,-304zm-1451 431l-4 -1c-161,0 -262,-155 -260,-380 0,-217 99,-380 260,-380 163,0 259,163 259,378 0,227 -94,383 -255,383zm3 -1026l-7 0c-380,4 -614,292 -614,653 0,346 214,637 601,637l2 0 11 0c377,-5 613,-259 613,-658 0,-333 -203,-632 -606,-632zm-1338 1026l-4 -1c-161,0 -261,-156 -260,-380 0,-217 99,-380 260,-380 163,0 260,163 260,378 0,227 -95,383 -256,383zm4 -1026l-8 0c-379,4 -614,292 -614,653 0,346 214,637 601,637l2 0 11 0c377,-5 614,-259 614,-658 0,-333 -204,-632 -606,-632z"/>
  <path class="fil1" d="M1053 1857l1 0c37,0 74,-19 95,-52l0 0 566 -978 0 0 -28 0 -929 0 -183 316 385 664c9,13 22,25 37,34l0 0c17,11 37,16 56,16z"/>
  <path class="fil2" d="M1351 827l364 0 382 -664c7,-14 12,-31 12,-48l0 0c0,-61 -48,-111 -108,-115l0 0 -1129 0 479 827z"/>
  <path class="fil3" d="M105 0c-17,2 -33,6 -48,15l0 0c-36,21 -57,60 -57,100l0 0c0,17 4,34 12,51l0 0 563 977 183 -316 296 -512 -182 -315 -767 0z"/>
 </g>
</svg>
